<svg viewBox="0 0 64 64" xmlns="http://www.w3.org/2000/svg">
    <defs>
        <linearGradient id="g" x1="0" y1="0" x2="1" y2="1">
            <stop offset="0" stop-color="#4F46E5"/>
            <stop offset="1" stop-color="#3B82F6"/>
        </linearGradient>
    </defs>
    <rect width="64" height="64" rx="14" fill="url(#g)"/>
    <path d="M22 18c-3 0-6 2-6 5s3 5 6 5h8s-1-4-2-6c-1-2-3-4-6-4z" fill="#FFFFFF" fill-opacity="0.85"/>
    <path d="M42 18c3 0 6 2 6 5s-3 5-6 5h-8s1-4 2-6c1-2 3-4 6-4z" fill="#FFFFFF" fill-opacity="0.85"/>
    <rect x="14" y="26" width="36" height="26" rx="3" fill="#FFFFFF"/>
    <rect x="29" y="26" width="6" height="26" fill="#4F46E5" fill-opacity="0.25"/>
    <path d="M32 48c-7-5-12-9-12-15a5 5 0 0 1 9-3 5 5 0 0 1 9 3c0 6-5 10-12 15z" fill="url(#g)"/>
</svg>
